<svg xmlns="http://www.w3.org/2000/svg" viewBox="0 0 32 32" width="32" height="32">
  <defs>
    <linearGradient id="grad" x1="0%" y1="100%" x2="100%" y2="0%">
      <stop offset="0%" stop-color="#2563eb" />
      <stop offset="50%" stop-color="#4f46e5" />
      <stop offset="100%" stop-color="#7c3aed" />
    </linearGradient>
  </defs>
  <rect width="32" height="32" rx="8" fill="url(#grad)" />
  <!-- Document Sheet -->
  <path d="M10 8h8l5 5v11a2 2 0 0 1-2 2h-11a2 2 0 0 1-2-2V10a2 2 0 0 1 2-2z" fill="#ffffff" />
  <!-- Document lines -->
  <path d="M12 14h8M12 18h6M12 21h4" stroke="#4f46e5" stroke-width="1.5" stroke-linecap="round" />
  <!-- Sparkle -->
  <path d="M21 7c0 1.5 1 2.5 2.5 2.5-1.5 0-2.5 1-2.5 2.5 0-1.5-1-2.5-2.5-2.5 1.5 0 2.5-1 2.5-2.5z" fill="#f59e0b" />
</svg>
